<svg height="470pt" viewBox="0 -28 470.28 470" width="470pt" xmlns="http://www.w3.org/2000/svg"><path d="m72.023438 4.140625h337.113281v347.726563h-337.113281zm0 0" fill="#f9dd9d"/><path d="m409.136719 355.867188h-337.113281c-2.207032 0-4-1.792969-4-4v-347.726563c0-2.207031 1.792968-4 4-4h337.113281c2.207031 0 4 1.792969 4 4v347.726563c0 2.207031-1.792969 4-4 4zm-333.113281-8h329.113281v-339.726563h-329.113281zm0 0" fill="#63312d"/><path d="m4 4.140625h337.113281v347.726563h-337.113281zm0 0" fill="#f9dd9d"/><path d="m20 20.140625h321.121094v-16h-337.121094v347.726563h16zm0 0" fill="#ffeecf"/><path d="m341.121094 355.867188h-337.121094c-2.207031 0-4-1.792969-4-4v-347.726563c0-2.207031 1.792969-4 4-4h337.121094c2.207031 0 4 1.792969 4 4v347.726563c0 2.207031-1.792969 4-4 4zm-333.121094-8h329.121094v-339.726563h-329.121094zm0 0" fill="#63312d"/><path d="m216.414062 115.570312-14.644531 11.296876-14.648437-11.296876-14.625 11.296876-14.585938-11.296876-14.613281 11.296876-14.59375-11.296876v-111.429687h87.710937zm0 0" fill="#f8f3f3"/><path d="m201.769531 130.867188c-.867187 0-1.722656-.277344-2.441406-.832032l-12.199219-9.40625-12.175781 9.40625c-1.441406 1.121094-3.449219 1.121094-4.898437 0l-12.144532-9.398437-12.167968 9.398437c-1.4375 1.121094-3.445313 1.121094-4.894532 0l-14.601562-11.296875c-.972656-.757812-1.550782-1.925781-1.550782-3.167969v-111.429687c0-2.207031 1.792969-4 4-4h87.71875c2.210938 0 4 1.792969 4 4v111.429687c0 1.242188-.574218 2.410157-1.558593 3.167969l-14.648438 11.296875c-.71875.554688-1.574219.832032-2.4375.832032zm-14.648437-19.296876c.863281 0 1.71875.28125 2.4375.832032l12.210937 9.417968 10.644531-8.207031v-105.472656h-79.710937v105.472656l10.601563 8.199219 12.167968-9.402344c1.4375-1.117187 3.449219-1.117187 4.894532 0l12.144531 9.402344 12.167969-9.402344c.710937-.566406 1.578124-.839844 2.441406-.839844zm0 0" fill="#63312d"/><path d="m49.304688 256.308594h71v45.519531h-71zm0 0" fill="#82d9ff"/><path d="m120.304688 305.828125h-71c-2.207032 0-4-1.792969-4-4v-45.519531c0-2.207032 1.792968-4 4-4h71c2.207031 0 4 1.792968 4 4v45.519531c0 2.207031-1.792969 4-4 4zm-67-8h63v-37.519531h-63zm0 0" fill="#63312d"/><path d="m422.398438 199.035156h-93.46875c-7.59375 19.898438-23.707032 35.585938-43.867188 42.617188v25.726562c0 58.304688 32.53125 111.730469 84.320312 138.503906l6.289063 3.25 6.289063-3.25c51.792968-26.773437 84.320312-80.199218 84.320312-138.503906v-25.726562c-20.175781-7.03125-36.28125-22.71875-43.882812-42.617188zm0 0" fill="#f8f3f3"/><path d="m375.664062 413.140625c-.632812 0-1.257812-.152344-1.832031-.449219l-6.289062-3.246094c-53.34375-27.578124-86.488281-82.007812-86.488281-142.066406v-25.726562c0-1.703125 1.082031-3.214844 2.679687-3.777344 19.121094-6.664062 34.226563-21.335938 41.457031-40.261719.585938-1.554687 2.082032-2.578125 3.738282-2.578125h93.476562c1.65625 0 3.152344 1.023438 3.738281 2.578125 7.222657 18.917969 22.328125 33.589844 41.457031 40.261719 1.597657.5625 2.679688 2.074219 2.679688 3.777344v25.726562c0 60.058594-33.144531 114.488282-86.488281 142.066406l-6.28125 3.246094c-.574219.296875-1.207031.449219-1.847657.449219zm-86.609374-168.703125v22.941406c0 57.050782 31.488281 108.761719 82.160156 134.953125l4.457031 2.304688 4.449219-2.296875c50.671875-26.191406 82.160156-77.910156 82.160156-134.960938v-22.941406c-19.21875-7.511719-34.519531-22.394531-42.570312-41.402344h-88.078126c-8.058593 19.015625-23.351562 33.898438-42.578124 41.402344zm0 0" fill="#63312d"/><path d="m309.054688 256.996094v10.382812c0 47.738282 25.386718 91.167969 66.601562 114.617188 41.222656-23.457032 66.609375-66.878906 66.609375-114.617188v-10.382812c-14.3125-8.160156-26.265625-19.832032-34.777344-33.960938h-63.664062c-8.503907 14.121094-20.457031 25.800782-34.769531 33.960938zm0 0" fill="#82d9ff"/><path d="m375.65625 385.996094c-.679688 0-1.367188-.175782-1.976562-.519532-42.328126-24.082031-68.625-69.328124-68.625-118.089843v-10.382813c0-1.441406.777343-2.769531 2.023437-3.480468 13.664063-7.792969 25.1875-19.039063 33.320313-32.542969.730468-1.199219 2.027343-1.9375 3.433593-1.9375h63.664063c1.40625 0 2.703125.738281 3.433594 1.9375 8.132812 13.503906 19.65625 24.75 33.316406 32.542969 1.25.710937 2.027344 2.039062 2.027344 3.480468v10.382813c0 48.761719-26.296876 94.007812-68.632813 118.089843-.617187.34375-1.304687.519532-1.984375.519532zm-62.601562-126.703125v8.09375c0 45.128906 23.929687 87.058593 62.601562 109.992187 38.679688-22.933594 62.609375-64.863281 62.609375-109.992187v-8.09375c-13.320313-8.015625-24.664063-19.097657-33-32.25h-59.210937c-8.335938 13.144531-19.679688 24.234375-33 32.25zm0 0" fill="#63312d"/><path d="m366.03125 327.691406c-2.183594 0-4.367188-.839844-6.03125-2.503906l-22.902344-23.023438c-3.3125-3.328124-3.296875-8.710937.03125-12.023437s8.710938-3.296875 12.023438.03125l17.261718 17.351563 39.722657-35.269532c3.519531-3.113281 8.894531-2.777344 12.007812.75 3.113281 3.519532 2.777344 8.894532-.753906 12.007813l-45.726563 40.566406c-1.625 1.410156-3.632812 2.113281-5.632812 2.113281zm0 0" fill="#f8f3f3"/><path d="m366.023438 331.691406c-3.34375 0-6.496094-1.3125-8.855469-3.6875l-22.902344-23.023437c-4.859375-4.886719-4.832031-12.824219.046875-17.679688 4.886719-4.855469 12.824219-4.847656 17.679688.046875l14.59375 14.671875 36.886718-32.765625c5.183594-4.570312 13.101563-4.074218 17.664063 1.09375 2.207031 2.503906 3.3125 5.71875 3.101562 9.054688-.199219 3.335937-1.703125 6.386718-4.199219 8.601562l-45.71875 40.558594c-2.3125 2.027344-5.25 3.128906-8.296874 3.128906zm-22.894532-40.03125c-1.160156 0-2.304687.441406-3.175781 1.3125-1.761719 1.75-1.769531 4.605469-.015625 6.367188l22.902344 23.023437c1.632812 1.648438 4.457031 1.722657 6.175781.199219l45.710937-40.550781c.914063-.808594 1.457032-1.902344 1.519532-3.105469.082031-1.199219-.316406-2.359375-1.117188-3.261719-1.640625-1.855469-4.503906-2.046875-6.359375-.402343l-39.714843 35.265624c-1.582032 1.398438-4 1.335938-5.496094-.167968l-17.253906-17.351563c-.863282-.878906-2.015626-1.328125-3.175782-1.328125zm0 0" fill="#63312d"/></svg>