<svg height="470pt" viewBox="0 -34 470.272 470" width="470pt" xmlns="http://www.w3.org/2000/svg"><path d="m450.273438 398.703125h-394.105469c-8.839844 0-16-7.160156-16-16v-236.9375c0-8.839844 7.160156-16 16-16h394.105469c8.839843 0 16 7.160156 16 16v236.9375c0 8.839844-7.167969 16-16 16zm0 0" fill="#52b8d9"/><path d="m450.273438 402.703125h-394.105469c-11.03125 0-20-8.976563-20-20v-236.945313c0-11.023437 8.96875-20 20-20h394.105469c11.03125 0 20 8.976563 20 20v236.945313c0 11.03125-8.96875 20-20 20zm-394.105469-268.945313c-6.617188 0-12 5.382813-12 12v236.945313c0 6.613281 5.382812 12 12 12h394.105469c6.613281 0 12-5.386719 12-12v-236.945313c0-6.617187-5.386719-12-12-12zm0 0" fill="#63312d"/><path d="m414.105469 398.703125h-394.105469c-8.839844 0-16-7.160156-16-16v-236.9375c0-8.839844 7.160156-16 16-16h394.105469c8.839843 0 16 7.160156 16 16v236.9375c0 8.839844-7.160157 16-16 16zm0 0" fill="#82d9ff"/><path d="m20 153.765625c0-4.414063 3.585938-8 8-8h402.105469c0-8.839844-7.160157-16-16-16h-394.105469c-8.839844 0-16 7.160156-16 16v236.9375c0 8.839844 7.160156 16 16 16zm0 0" fill="#caf4ff"/><path d="m414.105469 402.703125h-394.105469c-11.03125 0-20-8.976563-20-20v-236.945313c0-11.023437 8.96875-20 20-20h394.105469c11.03125 0 20 8.976563 20 20v236.945313c0 11.03125-8.96875 20-20 20zm-394.105469-268.945313c-6.617188 0-12 5.382813-12 12v236.945313c0 6.613281 5.382812 12 12 12h394.105469c6.613281 0 12-5.386719 12-12v-236.945313c0-6.617187-5.386719-12-12-12zm0 0" fill="#63312d"/><path d="m252.039062 93.503906h-44.34375c-7.792968 0-15.253906 3.109375-20.742187 8.636719l-30.632813 30.890625c-7.984374 8.046875-7.976562 21.023438.007813 29.070312 8.105469 8.167969 21.3125 8.128907 29.375-.078124l28.074219-28.585938h38.269531l64.609375 64.609375 36.992188-34.320313-84.992188-86.769531zm0 0" fill="#f8f3f3"/><path d="m84.945312 257.375c-7.257812-7.273438-7.242187-19.058594.03125-26.3125l14.351563-14.3125c7.273437-7.257812 19.054687-7.238281 26.3125.03125 7.253906 7.273438 7.238281 19.058594-.03125 26.3125l-14.351563 14.3125c-7.28125 7.253906-19.058593 7.238281-26.3125-.03125zm0 0" fill="#f8f3f3"/><path d="m108.824219 286.109375c-7.257813-7.269531-7.238281-19.054687.03125-26.3125l16.746093-16.703125c7.269532-7.253906 19.054688-7.238281 26.308594.03125 7.257813 7.273438 7.242188 19.058594-.03125 26.3125l-16.742187 16.703125c-7.273438 7.257813-19.046875 7.242187-26.3125-.03125zm0 0" fill="#f8f3f3"/><path d="m135.113281 312.453125c-7.257812-7.269531-7.242187-19.054687.03125-26.3125l16.742188-16.703125c7.273437-7.253906 19.058593-7.238281 26.3125.03125 7.257812 7.273438 7.242187 19.058594-.03125 26.3125l-16.742188 16.703125c-7.28125 7.257813-19.058593 7.242187-26.3125-.03125zm0 0" fill="#f8f3f3"/><path d="m170.078125 330.125c-7.253906-7.269531-7.238281-19.054688.035156-26.3125l8.054688-8.039062c7.273437-7.253907 19.054687-7.238282 26.3125.03125 7.253906 7.273437 7.238281 19.058593-.03125 26.3125l-8.058594 8.039062c-7.269531 7.257812-19.054687 7.242188-26.3125-.03125zm0 0" fill="#f8f3f3"/><path d="m342.769531 224.070312-42.105469-42.015624-44.558593-44.550782-70.730469-37.464844-24.695312-18.585937-81.199219 78.855469 30.648437 51.128906 97.519532 97.585938 15.960937 14.085937c7.535156 7.519531 19.75 7.511719 27.269531-.03125 7.519532-7.535156 7.511719-19.753906-.03125-27.273437l-5.480468-5.46875 14.304687 14.269531c7.535156 7.519531 19.753906 7.511719 27.273437-.03125 7.519532-7.535157 7.511719-19.746094-.035156-27.273438l5.984375 5.976563c7.539063 7.519531 19.753907 7.511718 27.273438-.03125 7.519531-7.535156 7.511719-19.753906-.03125-27.273438l-4.617188-4.605468c7.542969 7.519531 19.746094 7.503906 27.273438-.03125 7.527343-7.53125 7.511719-19.746094-.023438-27.265626zm0 0" fill="#f8f3f3"/><g fill="#63312d"><path d="m316.640625 202.046875c-1.023437 0-2.046875-.394531-2.832031-1.167969l-63.433594-63.433594h-34.933594l-26.90625 27.394532c-4.648437 4.734375-10.855468 7.351562-17.503906 7.375-.023438 0-.046875 0-.078125 0-6.609375 0-12.824219-2.585938-17.488281-7.28125-9.503906-9.566406-9.503906-25.144532 0-34.703125l30.625-30.886719c6.191406-6.25 14.796875-9.832031 23.589844-9.832031h42.695312l15.441406-15.378907c.757813-.75 1.785156-1.03125 2.839844-1.167968 1.070312.007812 2.085938.441406 2.832031 1.203125l85.007813 86.757812c.75.777344 1.167968 1.816407 1.144531 2.894531-.023437 1.082032-.488281 2.105469-1.28125 2.839844l-36.992187 34.320313c-.765626.714843-1.742188 1.066406-2.726563 1.066406zm-102.871094-72.609375h38.269531c1.066407 0 2.082032.425781 2.832032 1.167969l61.871094 61.878906 31.160156-28.902344-79.285156-80.953125-13.753907 13.695313c-.75.746093-1.765625 1.167969-2.824219 1.167969h-44.34375c-6.679687 0-13.207031 2.722656-17.902343 7.464843l-30.632813 30.890625c-6.417968 6.460938-6.417968 16.972656-.007812 23.4375 3.160156 3.167969 7.351562 4.921875 11.816406 4.921875h.054688c4.488281-.015625 8.679687-1.785156 11.824218-4.984375l28.082032-28.59375c.734374-.757812 1.765624-1.191406 2.839843-1.191406zm0 0"/><path d="m237.230469 332.75c-6.207031 0-12.054688-2.414062-16.453125-6.808594l-15.777344-13.917968 5.296875-6 15.949219 14.085937c3.066406 3.046875 6.898437 4.640625 10.976562 4.640625h.015625c4.082031-.007812 7.914063-1.601562 10.808594-4.488281 2.882813-2.886719 4.472656-6.726563 4.472656-10.816407-.007812-4.078124-1.597656-7.917968-4.496093-10.800781l-31.917969-31.855469 5.65625-5.664062 31.917969 31.855469c4.398437 4.394531 6.832031 10.242187 6.832031 16.464843.007812 6.214844-2.40625 12.066407-6.808594 16.472657-4.398437 4.398437-10.253906 6.679687-16.472656 6.832031zm0 0"/><path d="m273.304688 314.238281c-5.960938 0-11.914063-2.265625-16.457032-6.792969l-31.917968-31.855468 5.65625-5.664063 31.917968 31.855469c5.953125 5.945312 15.648438 5.953125 21.617188-.015625 5.949218-5.96875 5.933594-15.664063-.03125-21.617187l-40.746094-40.65625 5.65625-5.664063 40.742188 40.65625c4.402343 4.394531 6.832031 10.242187 6.832031 16.457031.011719 6.226563-2.40625 12.074219-6.804688 16.472656-4.53125 4.542969-10.496093 6.824219-16.464843 6.824219zm0 0"/><path d="m306.519531 292.917969c-6.207031 0-12.046875-2.414063-16.449219-6.800781l-31.917968-31.855469 5.65625-5.664063 31.917968 31.855469c2.882813 2.882813 6.722657 4.464844 10.792969 4.464844h.023438c4.082031 0 7.914062-1.601563 10.808593-4.488281 5.945313-5.96875 5.9375-15.664063-.03125-21.617188l-31.921874-31.855469 5.65625-5.664062 31.921874 31.855469c4.398438 4.394531 6.832032 10.242187 6.832032 16.457031 0 6.214843-2.410156 12.066406-6.808594 16.472656-4.390625 4.398437-10.230469 6.832031-16.457031 6.839844 0 0-.015625 0-.023438 0zm0 0"/><path d="m329.152344 261.007812c-6.207032 0-12.054688-2.417968-16.457032-6.800781l-42.109374-42.015625 5.652343-5.664062 42.113281 42.015625c5.953126 5.941406 15.648438 5.949219 21.617188-.015625 2.878906-2.890625 4.472656-6.730469 4.464844-10.816406-.007813-4.089844-1.601563-7.921876-4.496094-10.808594l-42.113281-42.015625 5.65625-5.664063 42.113281 42.015625c9.085938 9.070313 9.101562 23.839844.03125 32.929688-4.394531 4.398437-10.234375 6.828125-16.457031 6.828125 0 .011718-.007813.011718-.015625.011718zm0 0"/><path d="m106.695312 213.492188-30.648437-51.125c-.949219-1.59375-.6875-3.632813.640625-4.929688l81.199219-78.855469c1.425781-1.367187 3.625-1.503906 5.191406-.328125l24.699219 18.585938-4.816406 6.390625-21.960938-16.527344-76.472656 74.261719 29.015625 48.410156zm0 0"/><path d="m98.113281 266.839844c-.007812 0-.015625 0-.023437 0-6.042969-.011719-11.722656-2.371094-15.976563-6.640625-4.265625-4.273438-6.609375-9.953125-6.601562-15.992188 0-6.03125 2.359375-11.714843 6.632812-15.976562l14.351563-14.320313c8.824218-8.808594 23.167968-8.800781 31.96875.039063 4.261718 4.273437 6.605468 9.953125 6.605468 15.992187-.007812 6.03125-2.367187 11.710938-6.636718 15.976563l-14.355469 14.320312c-4.269531 4.253907-9.933594 6.601563-15.964844 6.601563zm14.351563-51.53125c-3.898438 0-7.554688 1.511718-10.3125 4.265625l-14.351563 14.320312c-2.769531 2.75-4.289062 6.421875-4.289062 10.328125-.007813 3.902344 1.503906 7.566406 4.257812 10.335938 2.757813 2.757812 6.421875 4.289062 10.328125 4.289062h.015625c3.894531 0 7.550781-1.511718 10.3125-4.265625l14.351563-14.320312c2.765625-2.75 4.285156-6.421875 4.292968-10.328125 0-3.902344-1.511718-7.566406-4.261718-10.335938-2.761719-2.757812-6.425782-4.289062-10.328125-4.289062-.007813 0-.007813 0-.015625 0zm0 0"/><path d="m121.992188 295.574219c-.007813 0-.015626 0-.023438 0-6.039062 0-11.710938-2.359375-15.976562-6.640625-4.257813-4.28125-6.609376-9.960938-6.601563-15.992188.007813-6.039062 2.363281-11.710937 6.632813-15.976562l16.753906-16.703125c4.269531-4.253907 9.933594-6.601563 15.964844-6.601563h.027343c6.039063.011719 11.71875 2.371094 15.972657 6.640625 4.265624 4.273438 6.609374 9.953125 6.609374 15.992188-.007812 6.03125-2.367187 11.714843-6.640624 15.976562l-16.742188 16.703125c-4.273438 4.257813-9.945312 6.601563-15.976562 6.601563zm-10.328126-12.289063c2.75 2.761719 6.414063 4.28125 10.3125 4.289063h.015626c3.894531 0 7.558593-1.511719 10.328124-4.265625l16.734376-16.703125c2.769531-2.75 4.289062-6.421875 4.296874-10.328125 0-3.902344-1.511718-7.566406-4.261718-10.335938-2.761719-2.757812-6.425782-4.289062-10.328125-4.289062-.007813 0-.007813 0-.019531 0-3.894532 0-7.550782 1.515625-10.308594 4.265625l-16.753906 16.703125c-5.703126 5.6875-5.710938 14.960937-.015626 20.664062l-2.839843 2.824219zm0 0"/><path d="m148.289062 321.902344c-5.808593 0-11.59375-2.207032-16.007812-6.632813h.007812c-4.265624-4.273437-6.617187-9.953125-6.609374-15.992187.007812-6.039063 2.367187-11.710938 6.648437-15.976563l16.734375-16.703125c4.273438-4.253906 9.9375-6.601562 15.96875-6.601562h.023438c6.042968 0 11.722656 2.363281 15.984374 6.640625 4.257813 4.273437 6.601563 9.953125 6.601563 15.992187-.007813 6.03125-2.367187 11.714844-6.640625 15.976563l-16.742188 16.703125c-4.417968 4.402344-10.203124 6.59375-15.96875 6.59375zm16.734376-53.90625c-3.894532 0-7.550782 1.515625-10.3125 4.265625l-16.742188 16.703125c-2.769531 2.753906-4.289062 6.425781-4.296875 10.328125 0 3.898437 1.511719 7.570312 4.265625 10.335937h.007812c5.671876 5.6875 14.933594 5.714844 20.65625.023438l16.734376-16.703125c2.769531-2.75 4.289062-6.421875 4.296874-10.328125 0-3.902344-1.511718-7.566406-4.265624-10.335938-2.757813-2.757812-6.421876-4.289062-10.328126-4.289062-.007812 0-.007812 0-.015624 0zm0 0"/><path d="m183.257812 339.589844c-.011718 0-.019531 0-.027343 0-6.039063 0-11.71875-2.359375-15.984375-6.640625-4.253906-4.269531-6.597656-9.953125-6.589844-15.992188 0-6.03125 2.359375-11.710937 6.632812-15.976562l8.054688-8.03125c4.273438-4.253907 9.9375-6.597657 15.96875-6.597657h.023438c6.039062 0 11.71875 2.359376 15.984374 6.636719 4.253907 4.273438 6.601563 9.953125 6.601563 15.992188-.011719 6.035156-2.371094 11.714843-6.640625 15.976562l-8.058594 8.03125c-4.269531 4.257813-9.933594 6.601563-15.964844 6.601563zm8.046876-45.246094c-3.898438 0-7.550782 1.511719-10.3125 4.261719l-8.054688 8.03125c-2.769531 2.753906-4.289062 6.425781-4.289062 10.328125-.007813 3.90625 1.503906 7.570312 4.253906 10.335937h.007812c2.753906 2.761719 6.417969 4.289063 10.320313 4.289063h.015625c3.898437 0 7.554687-1.511719 10.3125-4.265625l8.058594-8.03125c2.765624-2.75 4.285156-6.421875 4.292968-10.328125 0-3.902344-1.511718-7.566406-4.261718-10.335938-2.761719-2.757812-6.425782-4.285156-10.328126-4.285156-.007812 0-.007812 0-.015624 0zm0 0"/></g><path d="m175.28125 67.261719-107.394531 104.457031-63.886719-63.121094 107.390625-104.457031zm0 0" fill="#f9a287"/><path d="m320.863281 4.132812 104.929688 106.925782-63.066407 61.890625-104.929687-106.921875zm0 0" fill="#f9dd9d"/><path d="m67.886719 175.71875c-1.015625 0-2.03125-.382812-2.816407-1.160156l-63.878906-63.121094c-.765625-.75-1.191406-1.785156-1.1835935-2.855469.0078125-1.070312.4414065-2.105469 1.2070315-2.847656l107.394531-104.464844c1.542969-1.519531 4.039063-1.511719 5.597656.023438l63.882813 63.121093c.765625.753907 1.191406 1.785157 1.183594 2.855469-.007813 1.074219-.441407 2.105469-1.210938 2.847657l-107.390625 104.464843c-.769531.753907-1.777344 1.136719-2.785156 1.136719zm-58.175781-67.097656 58.191406 57.496094 101.65625-98.878907-58.191406-57.496093zm0 0" fill="#63312d"/><path d="m362.726562 176.964844c-.015624 0-.023437 0-.039062 0-1.0625-.007813-2.070312-.4375-2.816406-1.199219l-104.917969-106.925781c-1.546875-1.578125-1.519531-4.113282.046875-5.65625l63.070312-61.898438c.761719-.742187 1.730469-1.128906 2.839844-1.144531 1.066406.007813 2.074219.441406 2.816406 1.203125l104.929688 106.925781c1.542969 1.578125 1.519531 4.113281-.046875 5.65625l-63.074219 61.894531c-.75.738282-1.757812 1.144532-2.808594 1.144532zm-99.269531-110.871094 99.328125 101.214844 57.359375-56.292969-99.328125-101.21875zm0 0" fill="#63312d"/></svg>