<svg height="470pt" viewBox="0 0 470.086 470" width="470pt" xmlns="http://www.w3.org/2000/svg"><path d="m64.289062 444.761719h65v8h-65zm0 0" fill="#63312d"/><path d="m81.039062 417.59375h48.25v8h-48.25zm0 0" fill="#63312d"/><path d="m260.921875 52.121094h41v413.578125h-41zm0 0" fill="#f8f3f3"/><path d="m301.910156 469.707031h-41c-2.207031 0-4-1.792969-4-4v-413.585937c0-2.207032 1.792969-4 4-4h41c2.210938 0 4 1.792968 4 4v413.578125c0 2.214843-1.78125 4.007812-4 4.007812zm-37-8h33v-405.585937h-33zm0 0" fill="#63312d"/><path d="m198.328125 310.195312h171.6875v155.503907h-171.6875zm0 0" fill="#efc36a"/><path d="m370.007812 469.707031h-171.679687c-2.207031 0-4-1.792969-4-4v-155.511719c0-2.207031 1.792969-4 4-4h171.679687c2.207032 0 4 1.792969 4 4v155.503907c0 2.214843-1.792968 4.007812-4 4.007812zm-167.679687-8h163.679687v-147.511719h-163.679687zm0 0" fill="#63312d"/><path d="m151.824219 310.195312h171.6875v155.503907h-171.6875zm0 0" fill="#f9dd9d"/><path d="m167.824219 326.195312h155.679687v-16h-171.679687v155.503907h16zm0 0" fill="#ffeecf"/><path d="m323.511719 469.707031h-171.6875c-2.207031 0-4-1.792969-4-4v-155.511719c0-2.207031 1.792969-4 4-4h171.6875c2.207031 0 4 1.792969 4 4v155.503907c0 2.214843-1.792969 4.007812-4 4.007812zm-167.6875-8h163.6875v-147.511719h-163.6875zm0 0" fill="#63312d"/><path d="m319.160156 199.308594h-181.679687v-147.1875h181.679687c57.832032 0 112.28125 27.273437 146.917969 73.59375-34.628906 46.320312-89.078125 73.59375-146.917969 73.59375zm0 0" fill="#82d9ff"/><path d="m153.488281 68.121094h181.679688c45.167969 0 88.214843 16.699218 121.425781 46.042968-34.65625-39.234374-84.609375-62.042968-137.425781-62.042968h-181.679688v147.1875h16zm0 0" fill="#caf4ff"/><path d="m319.167969 203.308594h-181.679688c-2.207031 0-4-1.792969-4-4v-147.1875c0-2.207032 1.792969-4 4-4h181.679688c58.792969 0 114.910156 28.113281 150.121093 75.195312 1.0625 1.414063 1.0625 3.367188 0 4.789063-35.210937 47.089843-91.335937 75.203125-150.121093 75.203125zm-177.679688-8h177.679688c55.28125 0 108.089843-25.960938 141.886719-69.59375-33.808594-43.632813-86.605469-69.59375-141.886719-69.59375h-177.679688zm0 0" fill="#63312d"/><path d="m260.921875 52.121094h-102.753906l-20.679688-48.070313h102.742188zm0 0" fill="#f9a287"/><path d="m260.921875 199.308594h-102.753906l-20.679688 48.078125h102.742188zm0 0" fill="#f9a287"/><path d="m260.910156 56.121094h-102.742187c-1.601563 0-3.039063-.949219-3.671875-2.414063l-20.679688-48.078125c-.527344-1.242187-.410156-2.65625.335938-3.785156.734375-1.128906 2-1.8007812 3.335937-1.8007812h102.742188c1.601562 0 3.042969.9531252 3.671875 2.4179692l20.683594 48.078124c.527343 1.238282.40625 2.65625-.328126 3.785157-.738281 1.125-2 1.796875-3.347656 1.796875zm-100.109375-8h94.03125l-17.238281-40.078125h-94.035156zm0 0" fill="#63312d"/><path d="m240.230469 251.378906h-102.742188c-1.34375 0-2.601562-.671875-3.335937-1.800781-.746094-1.128906-.863282-2.542969-.335938-3.78125l20.679688-48.074219c.632812-1.472656 2.078125-2.414062 3.671875-2.414062h102.742187c1.347656 0 2.601563.671875 3.347656 1.796875.734376 1.128906.855469 2.546875.328126 3.785156l-20.683594 48.074219c-.628906 1.46875-2.070313 2.414062-3.671875 2.414062zm-96.671875-8h94.042968l17.238282-40.070312h-94.039063zm0 0" fill="#63312d"/><path d="m96.785156 71.097656h40.695313v108.089844h-40.695313zm0 0" fill="#82d9ff"/><path d="m137.488281 183.1875h-40.695312c-2.207031 0-4-1.792969-4-4v-108.089844c0-2.207031 1.792969-4 4-4h40.695312c2.207031 0 4 1.792969 4 4v108.089844c0 2.207031-1.792969 4-4 4zm-36.703125-8h32.695313v-100.089844h-32.695313zm0 0" fill="#63312d"/><path d="m372.230469 125.714844c0 18.609375-15.085938 33.695312-33.695313 33.695312s-33.695312-15.085937-33.695312-33.695312 15.085937-33.695313 33.695312-33.695313 33.695313 15.085938 33.695313 33.695313zm0 0" fill="#f8f3f3"/><path d="m338.535156 163.410156c-20.78125 0-37.6875-16.910156-37.6875-37.695312s16.90625-37.6875 37.6875-37.6875c20.792969 0 37.695313 16.910156 37.695313 37.6875-.007813 20.785156-16.910157 37.695312-37.695313 37.695312zm0-67.382812c-16.367187 0-29.6875 13.320312-29.6875 29.6875 0 16.375 13.320313 29.695312 29.6875 29.695312 16.375 0 29.695313-13.320312 29.695313-29.695312-.007813-16.367188-13.328125-29.6875-29.695313-29.6875zm0 0" fill="#63312d"/><path d="m403.960938 178.460938c24.070312-12.554688 45.414062-30.410157 62.117187-52.746094-16.703125-22.335938-38.039063-40.191406-62.117187-52.742188zm0 0" fill="#f9a287"/><path d="m403.960938 182.460938c-.722657 0-1.441407-.195313-2.074219-.578126-1.199219-.726562-1.925781-2.023437-1.925781-3.421874v-105.488282c0-1.402344.726562-2.699218 1.925781-3.425781 1.183593-.71875 2.671875-.769531 3.921875-.128906 24.839844 12.960937 46.792968 31.601562 63.472656 53.898437 1.0625 1.414063 1.0625 3.367188 0 4.789063-16.679688 22.304687-38.625 40.945312-63.472656 53.898437-.585938.304688-1.214844.457032-1.847656.457032zm4-102.753907v92.015625c20.503906-11.6875 38.71875-27.464844 53.09375-46.007812-14.375-18.535156-32.582032-34.3125-53.09375-46.007813zm0 0" fill="#63312d"/><path d="m8 132.074219 58.769531 33.929687c5.335938 3.078125 12-.769531 12-6.929687v-67.863281c0-6.160157-6.664062-10.007813-12-6.929688l-58.769531 33.9375c-5.335938 3.082031-5.335938 10.777344 0 13.855469zm0 0" fill="#f9dd9d"/><path d="m70.769531 171.089844c-2.058593 0-4.121093-.542969-6-1.621094l-58.769531-33.929688c-3.761719-2.167968-6-6.054687-6-10.390624 0-4.335938 2.238281-8.226563 6-10.394532l58.769531-33.925781c3.765625-2.167969 8.253907-2.160156 12 0 3.75 2.167969 6 6.046875 6 10.390625v67.855469c0 4.335937-2.242187 8.226562-6 10.394531-1.875 1.078125-3.9375 1.621094-6 1.621094zm-60.769531-42.480469 58.769531 33.929687c1.796875 1.046876 3.40625.351563 4 0 .597657-.34375 2-1.375 2-3.464843v-67.855469c0-2.085938-1.402343-3.121094-2-3.464844-.59375-.34375-2.203125-1.046875-4 0l-58.769531 33.929688c-1.808594 1.039062-2 2.765625-2 3.464844 0 .695312.199219 2.414062 2 3.460937zm0 0" fill="#63312d"/><path d="m219.921875 52.121094h41v413.578125h-41zm0 0" fill="#f8f3f3"/><path d="m260.910156 469.707031h-41c-2.207031 0-4-1.792969-4-4v-413.585937c0-2.207032 1.792969-4 4-4h41c2.210938 0 4 1.792968 4 4v413.578125c0 2.214843-1.78125 4.007812-4 4.007812zm-37-8h33v-405.585937h-33zm0 0" fill="#63312d"/></svg>