<?xml version="1.0" standalone="no"?>
<!DOCTYPE svg PUBLIC "-//W3C//DTD SVG 20010904//EN"
 "http://www.w3.org/TR/2001/REC-SVG-20010904/DTD/svg10.dtd">
<svg version="1.0" xmlns="http://www.w3.org/2000/svg"
 width="850.000000pt" height="850.000000pt" viewBox="0 0 850.000000 850.000000"
 preserveAspectRatio="xMidYMid meet">
<metadata>
Created by potrace 1.11, written by Peter Selinger 2001-2013
</metadata>
<g transform="translate(0.000000,850.000000) scale(0.100000,-0.100000)"
fill="#000000" stroke="none">
<path d="M1688 6732 l-107 -3 -5 -27 c-4 -15 -8 -36 -11 -47 -2 -11 -20 -83
-39 -160 -19 -77 -53 -216 -75 -310 -23 -93 -44 -181 -48 -195 -3 -14 -7 -32
-9 -40 -2 -9 -25 -106 -53 -215 -49 -199 -139 -573 -146 -604 -2 -9 -24 -97
-48 -196 -44 -176 -116 -475 -122 -505 -2 -8 -4 -15 -5 -15 -1 0 -3 -10 -6
-22 -5 -30 -82 -345 -98 -408 -13 -48 -62 -248 -71 -290 -2 -11 -25 -105 -50
-210 -26 -104 -48 -197 -50 -205 -2 -8 -20 -80 -39 -160 -20 -80 -38 -154 -40
-165 -7 -31 -144 -593 -161 -655 -8 -30 -16 -66 -19 -80 -2 -14 -12 -54 -21
-90 -9 -36 -18 -72 -20 -80 -2 -8 -16 -64 -30 -125 -15 -60 -29 -120 -31 -133
l-4 -22 804 0 804 0 22 93 c12 50 23 99 25 107 2 9 19 81 38 160 52 212 108
443 112 460 2 8 15 62 29 120 14 58 59 247 101 420 42 173 101 416 131 540 31
124 58 236 60 249 3 14 23 99 45 190 45 186 47 194 53 219 2 9 24 100 49 202
41 167 59 246 62 260 0 3 6 25 13 50 14 54 111 455 118 489 3 14 7 28 9 32 3
4 169 7 369 7 396 -1 427 -4 493 -58 92 -75 114 -181 73 -340 -12 -47 -24 -93
-26 -103 -2 -10 -6 -27 -9 -37 -3 -10 -7 -27 -9 -37 -2 -10 -16 -65 -31 -123
-15 -58 -31 -121 -35 -140 -5 -19 -22 -91 -40 -160 -18 -69 -33 -132 -35 -140
-2 -8 -19 -78 -39 -155 -20 -77 -38 -149 -40 -160 -6 -27 -22 -93 -96 -385
-34 -135 -63 -252 -65 -260 -2 -8 -11 -43 -19 -77 -9 -35 -23 -91 -32 -125 -8
-35 -18 -72 -21 -83 -2 -11 -8 -36 -13 -55 -4 -19 -29 -116 -54 -215 -25 -99
-48 -189 -50 -200 -3 -11 -34 -139 -71 -285 -37 -146 -69 -273 -70 -283 -2 -9
-6 -20 -8 -25 -3 -4 -8 -23 -11 -42 -3 -19 -10 -51 -16 -70 -5 -19 -10 -36
-10 -37 0 -2 362 -3 805 -3 709 0 805 2 805 15 0 21 1 27 11 53 5 12 11 33 13
45 2 12 9 42 16 67 12 43 14 54 25 101 2 11 7 29 10 39 3 10 8 27 10 37 2 10
29 119 60 243 31 124 58 232 60 240 2 8 15 60 29 115 15 55 28 112 31 127 3
15 9 38 15 52 5 15 7 26 4 26 -2 0 0 8 5 18 5 9 11 31 15 47 3 17 23 102 46
189 22 88 42 169 45 180 3 12 18 73 34 136 35 139 261 1038 267 1060 3 16 33
134 39 160 2 8 25 96 50 195 44 171 72 321 77 411 l2 42 350 0 c203 1 374 -3
406 -9 77 -15 137 -61 174 -133 49 -96 47 -109 -119 -766 -81 -321 -149 -591
-150 -600 -14 -59 -237 -951 -244 -975 -5 -16 -69 -268 -141 -560 -72 -291
-133 -536 -135 -542 -3 -10 161 -13 798 -13 l803 0 19 72 c10 40 20 78 21 83
10 43 69 280 169 675 64 256 119 472 121 480 2 8 49 195 104 415 56 220 103
407 105 415 2 8 33 134 70 280 37 146 68 272 70 280 2 8 14 53 25 100 12 47
23 92 25 100 1 8 8 35 15 60 7 25 14 52 15 60 2 8 19 78 39 155 38 153 43 175
52 250 3 28 8 61 10 75 6 38 5 249 -2 300 -36 271 -134 497 -304 705 -171 208
-401 357 -650 419 -160 40 -224 43 -858 40 -337 -1 -615 -4 -616 -6 -2 -1 -26
-102 -54 -223 -28 -121 -68 -287 -87 -370 -20 -82 -46 -195 -59 -249 l-22
-100 -34 85 c-125 311 -319 555 -551 692 -88 52 -230 110 -322 131 -174 41
-162 40 -1457 41 -690 0 -1303 -1 -1362 -3z"/>
</g>
</svg>
