<?xml version="1.0" encoding="iso-8859-1"?>
<!-- Generator: Adobe Illustrator 19.0.0, SVG Export Plug-In . SVG Version: 6.00 Build 0)  -->
<svg version="1.1" id="Capa_1" xmlns="http://www.w3.org/2000/svg" xmlns:xlink="http://www.w3.org/1999/xlink" x="0px" y="0px"
	 viewBox="0 0 512 512" style="enable-background:new 0 0 512 512;" xml:space="preserve">
<g>
	<rect x="241" style="fill:#FFC233;" width="30" height="51.45"/>
	<rect x="241" y="460.55" style="fill:#FFC233;" width="30" height="51.45"/>
	
		<rect x="142.151" y="28.251" transform="matrix(-0.3827 -0.9239 0.9239 -0.3827 192.163 214.9011)" style="fill:#FFC233;" width="51.451" height="30.001"/>
	
		<rect x="318.393" y="453.763" transform="matrix(-0.3827 -0.9239 0.9239 -0.3827 42.7295 966.0781)" style="fill:#FFC233;" width="51.451" height="30.001"/>
	
		<rect x="67.449" y="78.172" transform="matrix(-0.7071 -0.7071 0.7071 -0.7071 93.1749 224.9374)" style="fill:#FFC233;" width="51.45" height="30"/>
	
		<rect x="393.102" y="403.826" transform="matrix(-0.7071 -0.7071 0.7071 -0.7071 418.8269 1011.1354)" style="fill:#FFC233;" width="51.45" height="30"/>
	
		<rect x="17.529" y="152.883" transform="matrix(-0.9239 -0.3827 0.3827 -0.9239 18.9693 339.5406)" style="fill:#FFC233;" width="51.451" height="30.001"/>
	
		<rect x="443.023" y="329.141" transform="matrix(-0.9239 -0.3827 0.3827 -0.9239 770.1154 841.4708)" style="fill:#FFC233;" width="51.451" height="30.001"/>
	<rect y="241" style="fill:#FFC233;" width="51.45" height="30"/>
	<rect x="460.55" y="241" style="fill:#FFC233;" width="51.45" height="30"/>
	
		<rect x="28.244" y="318.4" transform="matrix(-0.3827 -0.9239 0.9239 -0.3827 -258.1353 515.7715)" style="fill:#FFC233;" width="30.001" height="51.451"/>
	
		<rect x="453.761" y="142.168" transform="matrix(-0.3827 -0.9239 0.9239 -0.3827 493.0379 665.2225)" style="fill:#FFC233;" width="30.001" height="51.451"/>
	
		<rect x="78.18" y="393.097" transform="matrix(-0.7071 -0.7071 0.7071 -0.7071 -137.0845 780.861)" style="fill:#FFC233;" width="30" height="51.45"/>
	
		<rect x="403.821" y="67.444" transform="matrix(-0.7071 -0.7071 0.7071 -0.7071 649.0913 455.1999)" style="fill:#FFC233;" width="30" height="51.45"/>
	
		<rect x="152.875" y="443.033" transform="matrix(-0.9239 -0.3827 0.3827 -0.9239 143.5828 966.0773)" style="fill:#FFC233;" width="30.001" height="51.451"/>
	
		<rect x="329.125" y="17.541" transform="matrix(-0.9239 -0.3827 0.3827 -0.9239 645.4965 214.9339)" style="fill:#FFC233;" width="30.001" height="51.451"/>
</g>
<polygon style="fill:#FF932E;" points="392.757,214.464 298.26,200.732 256,115.104 235.984,249 256,330.796 340.521,375.231 
	324.379,281.116 "/>
<polygon style="fill:#FFC233;" points="213.74,200.732 119.243,214.464 187.621,281.116 171.479,375.231 256,330.796 256,115.104 
	"/>
<g>
</g>
<g>
</g>
<g>
</g>
<g>
</g>
<g>
</g>
<g>
</g>
<g>
</g>
<g>
</g>
<g>
</g>
<g>
</g>
<g>
</g>
<g>
</g>
<g>
</g>
<g>
</g>
<g>
</g>
</svg>
